Coordinates
version=1
nRows=11
nColumns=36
inDegrees=yes

Units are S.I. units (second, meters, Newtons, ...)
If the header above contains a line with 'inDegrees', this indicates whether rotational values are in degrees (yes) or radians (no).

endheader
time	pelvis_tilt	pelvis_list	pelvis_rotation	pelvis_tx	pelvis_ty	pelvis_tz	hip_flexion_r	hip_adduction_r	hip_rotation_r	knee_angle_r	knee_angle_r_beta	ankle_angle_r	subtalar_angle_r	mtp_angle_r	hip_flexion_l	hip_adduction_l	hip_rotation_l	knee_angle_l	knee_angle_l_beta	ankle_angle_l	subtalar_angle_l	mtp_angle_l	lumbar_extension	lumbar_bending	lumbar_rotation	arm_flex_r	arm_add_r	arm_rot_r	elbow_flex_r	pro_sup_r	arm_flex_l	arm_add_l	arm_rot_l	elbow_flex_l	pro_sup_l
      4.45416670	     -5.06393192	     -0.42278949	      2.73249845	      0.30829588	      0.99258017	     -0.05379933	      5.02033950	     -4.93275650	     -0.85587727	      4.16073412	      0.07261851	     -0.88492446	    -18.76173165	     -7.49999987	      7.27877829	     -3.49062378	     16.97315494	     10.73352081	      0.18733528	      5.80768324	    -16.73254659	     -7.49999987	      0.69442421	      0.15903154	     -4.73396565	    539.72629960	   -171.34808544	    565.15806272	     62.94676667	     75.99442018	    366.04836230	    -10.31599444	    387.83205586	     59.54110241	     79.36883527
      4.45833330	     -5.24144927	     -0.36767508	      2.59932309	      0.30844476	      0.99266207	     -0.05335331	      5.16859467	     -5.02758228	     -0.83404850	      4.04021099	      0.07051498	     -0.92735934	    -18.67122501	     -7.49999987	      7.37466897	     -3.39804739	     17.00452659	     10.66805243	      0.18619264	      5.56652330	    -17.16726741	     -7.49999987	      0.95772958	      0.14746126	     -4.54235881	    539.80050128	   -171.34396598	    565.37978674	     62.27573075	     76.01664860	    366.10164534	    -10.28929439	    388.30400642	     58.64774454	     79.56579871
      4.46250000	     -5.14210718	     -0.31678983	      2.41267596	      0.30826497	      0.99532661	     -0.05335713	      4.99210087	     -5.09817639	     -0.78293475	      3.82818015	      0.06681435	     -0.90474084	    -18.32458562	     -7.49999987	      7.16029828	     -3.36911249	     16.92973277	     10.52459181	      0.18368878	      5.49624601	    -17.06922162	     -7.49999987	      0.82892509	      0.16160331	     -4.62285092	    540.20860157	   -171.42458460	    565.57930890	     61.46676200	     77.15844516	    365.90206948	    -10.08149024	    387.48003810	     58.03559264	     82.89618270
      4.46666670	     -5.10264120	     -0.28142785	      2.24549946	      0.31272361	      0.99271945	     -0.04875393	      4.88111805	     -5.04519083	     -0.71377454	      3.75527128	      0.06554185	     -0.93997967	    -18.25289943	     -7.49999987	      6.98908656	     -3.40635317	     16.97165354	     10.51520981	      0.18352503	      5.53445960	    -17.09070399	     -7.49999987	      0.84214927	      0.11830756	     -4.55024377	    540.12545161	   -171.48008764	    565.57807028	     61.28216124	     77.15444531	    365.69458386	    -10.09913590	    387.52982442	     57.88642738	     82.90153865
      4.47083330	     -4.98574613	     -0.27734577	      2.11199135	      0.31259139	      0.99251593	     -0.04866623	      4.66593150	     -4.96114607	     -0.79902372	      3.69004510	      0.06440344	     -0.75501202	    -17.92290623	     -7.49999987	      6.69610742	     -3.49598399	     16.92295759	     10.39497777	      0.18142659	      5.44756598	    -17.18476786	     -7.49999987	      0.86586664	      0.10886914	     -4.45203659	    540.17952084	   -171.60229243	    565.47779344	     60.33026290	     76.38131031	    365.69436313	    -10.10768277	    388.14096225	     57.17994743	     80.49029299
      4.47500000	     -5.02607584	     -0.24144545	      1.99999227	      0.30831661	      0.98948870	     -0.05230596	      4.71911759	     -4.98716761	     -0.80837921	      3.62261918	      0.06322663	     -0.71239882	    -17.94060982	     -7.49999987	      6.72422076	     -3.47018746	     16.92129389	     10.38153357	      0.18119194	      5.48932550	    -17.19984983	     -7.49999987	      0.78982219	      0.12503770	     -4.43810302	    540.19883981	   -171.50181169	    565.42405790	     60.28910446	     76.37914637	    365.66565198	    -10.14288243	    388.14061521	     57.14404285	     80.49818615
      4.47916670	     -5.01582287	     -0.21787111	      1.91482123	      0.31227062	      0.99221709	     -0.04831994	      4.68719851	     -4.96460155	     -0.73928216	      3.58483436	      0.06256716	     -0.70794712	    -17.90741251	     -7.49999987	      6.67137086	     -3.51695897	     16.96509516	     10.41542511	      0.18178346	      5.49410875	    -17.19317979	     -7.49999987	      0.75440085	      0.10571530	     -4.40820451	    540.14453937	   -171.39821936	    565.38767130	     60.20600191	     76.37796819	    365.49635007	    -10.18531429	    388.16897354	     57.05741288	     80.51308344
      4.48333330	     -5.03801469	     -0.19173307	      1.85287424	      0.30834068	      0.98968419	     -0.05213352	      4.73281789	     -5.03039213	     -0.72216900	      3.54112663	      0.06180432	     -0.71558036	    -17.88304781	     -7.49999987	      6.68250341	     -3.48580723	     16.92624582	     10.35431344	      0.18071686	      5.55085357	    -17.24056904	     -7.49999987	      0.72644012	      0.20500309	     -4.37063299	    540.24732850	   -171.23411805	    565.30992157	     60.09288043	     76.37444782	    365.53504909	    -10.21617258	    388.16351797	     56.99405699	     80.53329014
      4.48750000	     -4.97516315	     -0.18104656	      1.74932282	      0.31248790	      0.99255366	     -0.04800409	      4.64747626	     -4.98817966	     -0.56085197	      3.48656077	      0.06085197	     -0.75627841	    -17.75054159	     -7.49999987	      6.55606487	     -3.54411582	     16.95668793	     10.34733315	      0.18059503	      5.51029568	    -17.25387625	     -7.49999987	      0.71283636	      0.20728694	     -4.23132129	    540.18401712	   -171.15657045	    565.25394494	     59.64146592	     76.37193757	    365.46610857	    -10.18972545	    388.22933747	     56.77715861	     80.60515159
      4.49166670	     -4.96051634	     -0.19974540	      1.65093929	      0.31263716	      0.99020680	     -0.04765508	      4.63970227	     -4.93409615	     -0.57840378	      3.51226615	      0.06130061	     -0.66432374	    -17.55797532	     -7.49999987	      6.45247463	     -3.63450053	     16.87220042	     10.24044660	      0.17872951	      5.47312878	    -17.26605739	     -7.49999987	      0.75204186	      0.17124776	     -3.90602611	    540.18990688	   -171.22111793	    564.80847105	     58.73689067	     76.64878269	    365.85814373	    -10.21994719	    388.94007342	     55.96972858	     83.29131347
      4.49583330	     -4.93423794	     -0.20473626	      1.63541326	      0.31244173	      0.99280971	     -0.04779375	      4.57551361	     -4.90138245	     -0.52262940	      3.48673831	      0.06085506	     -0.61909384	    -17.57925154	     -7.49999987	      6.37364177	     -3.68473962	     16.93228188	     10.18270049	      0.17772165	      5.40061694	    -17.32602021	     -7.49999987	      0.70524661	      0.18577287	     -3.94694437	    540.29532221	   -171.17621865	    564.78512288	     58.32006731	     76.17561289	    365.90072389	    -10.35555996	    389.32513169	     55.87850000	     82.12668257
